<svg width="178" height="70" viewBox="0 0 178 70" fill="none" xmlns="http://www.w3.org/2000/svg">
<g clip-path="url(#clip0_428_21)">
<path d="M103.264 22.5296L113.471 18.7312L103.264 14.8242V9.50635L120.746 16.5606V20.9017L103.264 27.956V22.5296Z" fill="#F8F7F4"/>
<path d="M6.73049 56.1732C3.0385 56.1732 -0.00195312 54.3282 -0.00195312 50.2042V49.9871C-0.00195312 44.9949 4.34156 43.2584 9.66236 43.2584H12.1599V42.2817C12.1599 40.2197 11.2912 39.0259 9.11942 39.0259C7.16484 39.0259 6.18755 40.1111 6.07896 41.6305H0.649573C1.08392 37.0724 4.66732 34.9018 9.44518 34.9018C14.3316 34.9018 17.915 36.9639 17.915 42.0646V55.739H12.377V53.3515C11.2912 54.8708 9.44518 56.1732 6.73049 56.1732ZM12.1599 49.0104V47.0569H9.87953C7.05625 47.0569 5.64461 47.8166 5.64461 49.6615V49.8786C5.64461 51.2894 6.51331 52.2662 8.46789 52.2662C10.4225 52.1577 12.1599 51.0724 12.1599 49.0104ZM30.837 56.1732C25.1904 56.1732 21.0641 52.7003 21.0641 45.7546V45.429C21.0641 38.4832 25.4076 34.7933 30.837 34.7933C35.5062 34.7933 39.3068 37.1809 39.7412 42.4987H34.3118C33.986 40.5452 32.9001 39.2429 30.9456 39.2429C28.5566 39.2429 26.8192 41.1964 26.8192 45.2119V45.8631C26.8192 49.9871 28.3394 51.8321 30.9456 51.8321C32.9001 51.8321 34.3118 50.4212 34.6375 48.1421H39.8497C39.524 52.9173 36.3749 56.1732 30.837 56.1732ZM52.1202 56.1732C46.4736 56.1732 42.3473 52.7003 42.3473 45.7546V45.429C42.3473 38.4832 46.6908 34.7933 52.1202 34.7933C56.7894 34.7933 60.59 37.1809 61.0244 42.4987H55.595C55.2692 40.5452 54.1833 39.2429 52.2287 39.2429C49.8398 39.2429 48.1024 41.1964 48.1024 45.2119V45.8631C48.1024 49.9871 49.6226 51.8321 52.2287 51.8321C54.1833 51.8321 55.595 50.4212 55.9207 48.1421H61.1329C60.8072 52.9173 57.6581 56.1732 52.1202 56.1732ZM73.5119 56.1732C67.6482 56.1732 63.6305 52.7003 63.6305 45.8631V45.429C63.6305 38.5918 67.8654 34.7933 73.4034 34.7933C78.507 34.7933 82.7419 37.615 82.7419 44.4522V46.9484H69.3856C69.6028 50.6383 71.2316 52.0491 73.6205 52.0491C75.7923 52.0491 76.9868 50.8553 77.4211 49.4445H82.7419C82.0904 53.2429 78.8327 56.1732 73.5119 56.1732ZM69.4942 43.1499H77.0953C76.9868 40.1111 75.5751 38.8088 73.2948 38.8088C71.5574 38.9173 69.9286 39.8941 69.4942 43.1499ZM86.2167 35.3359H91.9719V38.3747C92.9492 36.4212 95.0123 34.9018 98.1614 34.9018C101.853 34.9018 104.351 37.1809 104.351 42.0646V55.739H98.5957V42.9328C98.5957 40.5452 97.6184 39.46 95.5553 39.46C93.6007 39.46 91.9719 40.6538 91.9719 43.2584V55.739H86.2167V35.3359ZM114.884 29.1499V35.3359H118.793V39.5685H114.884V49.2274C114.884 50.7468 115.535 51.5065 116.947 51.5065C117.816 51.5065 118.359 51.398 118.902 51.1809V55.6305C118.25 55.8476 117.056 56.0646 115.644 56.0646C111.192 56.0646 109.129 54.0026 109.129 49.8786V39.5685H106.74V35.3359H109.129V31.5375L114.884 29.1499ZM140.293 55.739H134.647V52.7003C133.67 54.6538 131.715 56.1732 128.675 56.1732C124.983 56.1732 122.268 53.8941 122.268 49.1189V35.3359H128.023V48.3592C128.023 50.7468 129 51.8321 130.955 51.8321C132.909 51.8321 134.538 50.5297 134.538 48.0336V35.3359H140.293V55.739ZM144.528 35.3359H150.283V39.1344C151.478 36.4212 153.433 35.1189 156.473 35.1189V40.7623C152.564 40.7623 150.283 41.9561 150.283 45.3204V55.8476H144.528V35.3359ZM168.092 56.1732C162.228 56.1732 158.21 52.7003 158.21 45.8631V45.429C158.21 38.5918 162.445 34.7933 167.983 34.7933C173.087 34.7933 177.322 37.615 177.322 44.4522V46.9484H164.074C164.291 50.6383 165.92 52.0491 168.309 52.0491C170.481 52.0491 171.675 50.8553 172.11 49.4445H177.43C176.562 53.2429 173.413 56.1732 168.092 56.1732ZM163.966 43.1499H171.675C171.567 40.1111 170.155 38.8088 167.875 38.8088C166.137 38.9173 164.508 39.8941 163.966 43.1499Z" fill="#F8F7F4"/>
</g>
<defs>
<clipPath id="clip0_428_21">
<rect width="177.16" height="70" fill="white"/>
</clipPath>
</defs>
</svg>
