<svg width="177" height="70" viewBox="0 0 177 70" fill="none" xmlns="http://www.w3.org/2000/svg">
<path d="M45.44 65V53.96H49.76C52.4267 53.96 53.76 55.2933 53.76 57.96V61C53.76 63.6667 52.4267 65 49.76 65H45.44ZM46.784 63.784H49.84C51.5573 63.784 52.416 62.9253 52.416 61.208V57.752C52.416 56.0347 51.5573 55.176 49.84 55.176H46.784V63.784ZM64.091 55.128V53.624H65.499V55.128H64.091ZM64.155 65V56.68H65.435V65H64.155ZM75.8708 62.6V59.08C75.8708 57.48 76.6708 56.68 78.2708 56.68H82.7508V65.8C82.7508 67.4 81.9508 68.2 80.3508 68.2H77.1508L76.5108 67.72V67.08H80.3508C81.0974 67.08 81.4708 66.7067 81.4708 65.96V65H78.2708C76.6708 65 75.8708 64.2 75.8708 62.6ZM77.1508 62.76C77.1508 63.5067 77.5241 63.88 78.2708 63.88H81.4708V57.8H78.2708C77.5241 57.8 77.1508 58.1733 77.1508 58.92V62.76ZM93.2473 55.128V53.624H94.6553V55.128H93.2473ZM93.3113 65V56.68H94.5913V65H93.3113ZM105.091 62.6V53.96H106.371V56.68H109.411V57.8H106.371V62.76C106.371 63.5067 106.744 63.88 107.491 63.88H109.571V64.52L108.931 65H107.491C105.891 65 105.091 64.2 105.091 62.6ZM121.389 65C119.778 65 118.973 64.1947 118.973 62.584C118.973 60.9733 119.778 60.168 121.389 60.168H124.317V58.92C124.317 58.1733 123.943 57.8 123.197 57.8H119.773V57.16L120.413 56.68H123.197C124.797 56.68 125.597 57.48 125.597 59.08V65H121.389ZM120.253 62.76C120.253 63.5067 120.626 63.88 121.373 63.88H124.317V61.208H121.373C120.626 61.208 120.253 61.5813 120.253 62.328V62.76ZM136.029 62.728V53.16H137.309V62.856C137.309 63.592 137.682 63.9813 138.429 64.024V65.128C136.829 65.128 136.029 64.328 136.029 62.728Z" fill="#F8F7F4"/>
<path fill-rule="evenodd" clip-rule="evenodd" d="M32.389 13.1244C32.6035 17.0681 32.8167 25.894 32.8632 32.7368L32.9478 45.1784L33.6936 31.6119C34.104 24.1504 34.6104 15.3251 34.8195 11.9995L35.199 5.95361H33.5995H32L32.389 13.1244ZM45.7823 13.3279C45.6745 15.7622 45.7543 17.7529 45.9604 17.7517C46.1659 17.7511 46.7021 17.3105 47.1518 16.7726C49.6818 13.7449 57.7006 12.6661 62.2995 14.7341C63.6285 15.3322 65.8386 17.1176 67.2105 18.7025L69.7048 21.5845L69.6994 18.3404C69.6964 16.5561 69.4611 14.7323 69.177 14.2876C68.7063 13.552 49.5877 8.90284 47.0339 8.90284H45.9783L45.7823 13.3279ZM143.578 11.4097C143.577 11.8155 143.165 20.2114 142.664 30.0677C142.162 39.9234 141.895 48.13 142.07 48.3034C142.245 48.4774 142.539 48.4703 142.723 48.2881C143.035 47.9796 145.335 16.8062 145.357 12.5894C145.364 11.274 145.087 10.6724 144.474 10.6724C143.982 10.6724 143.579 11.0045 143.578 11.4097ZM118.263 12.7604C113.348 13.1727 108.858 13.5349 108.285 13.5656L107.242 13.6216L107.255 21.4371L107.268 29.2525L108.481 26.5982C112.496 17.8042 123.162 14.5335 130.326 19.8993L132.262 21.3498V19.3372C132.262 18.2307 132.432 16.0937 132.641 14.589L133.02 11.8521L130.109 11.9317C128.508 11.9754 123.177 12.3487 118.263 12.7604ZM86.9827 12.5894C86.9797 12.6702 86.7104 17.0834 86.384 22.3956C85.9807 28.9676 85.9866 32.7751 86.4036 34.3087C87.9233 39.8969 94.6977 40.6454 97.3736 35.5214C97.958 34.4025 98.3541 30.5679 98.649 23.17L99.0767 12.4419H93.0321C89.708 12.4419 86.9856 12.5086 86.9827 12.5894ZM71.2542 14.3229C71.0969 15.0726 70.8157 19.4021 70.6287 23.9439C70.4416 28.4857 70.1253 34.1489 69.9258 36.5289L69.563 40.856L67.593 43.7545L65.623 46.653H67.3702H69.1168V48.7705V50.8881L84.4563 50.3926C92.8927 50.1201 102.375 49.9438 105.526 50.001L111.258 50.1048L109.399 46.9957L107.54 43.8872L107.355 45.8602L107.17 47.8327H103.402H99.6331L99.2203 45.1082L98.8081 42.3831L96.9191 44.1933C94.4022 46.6052 91.2533 47.8327 87.5837 47.8327C82.3213 47.8327 78.495 45.5754 76.0842 41.0495L74.8272 38.6901L74.8016 32.2018C74.7873 28.6332 74.8803 22.9264 75.0077 19.5201L75.2395 13.3267L73.3904 13.1432L71.5407 12.9598L71.2542 14.3229ZM49.0009 22.6038C46.6914 23.7062 45.3171 26.672 44.9114 31.4303V35.4459L45.597 38.0389C46.9779 40.9209 48.93 42.1307 52.1987 42.1307C54.2926 42.1307 55.213 41.7821 56.6057 40.4608C59.007 38.1828 59.7517 35.5609 59.4848 30.3243L58.8069 26.0084L57.0477 23.8855C54.6804 21.7373 51.7841 21.276 49.0009 22.6038ZM123.028 25.8426C117.014 27.2937 115.223 40.5351 120.573 44.0058C123.158 45.6833 126.348 45.7842 128.313 44.2506C130.709 42.3807 131.666 39.6969 131.666 34.8455C131.666 29.797 130.59 27.4222 127.774 26.2567C125.695 25.3973 125.094 25.3448 123.028 25.8426ZM42.6334 45.6402C42.5119 46.0348 42.2664 47.201 42.0877 48.2308L41.7619 50.103L45.4612 50.4935C47.4962 50.7076 50.0988 50.7902 51.2455 50.6769L53.3305 50.4699L49.817 49.4046C47.8006 48.793 45.5684 47.6109 44.5784 46.6306C43.5156 45.5783 42.7686 45.1978 42.6334 45.6402Z" fill="#F8F7F4"/>
</svg>
