<svg width="47" height="47" viewBox="0 0 47 47" fill="none" xmlns="http://www.w3.org/2000/svg">
<rect width="47" height="47" rx="10" fill="#1769FF"/>
<path d="M18.4038 15C19.1524 15 19.8357 15.0678 20.4537 15.202C21.0717 15.3361 21.5995 15.5564 22.0397 15.8629C22.48 16.1694 22.8216 16.5761 23.0647 17.0846C23.3077 17.593 23.4285 18.2201 23.4285 18.9672C23.4285 19.7736 23.248 20.4458 22.8883 20.9839C22.5286 21.522 21.9953 21.9627 21.2911 22.3058C22.2605 22.5897 22.9841 23.0868 23.4619 23.7958C23.9396 24.5048 24.1785 25.3607 24.1785 26.362C24.1785 27.1684 24.0243 27.8675 23.716 28.4578C23.4077 29.0482 22.9924 29.5298 22.4702 29.9026C21.948 30.2769 21.3536 30.5523 20.6856 30.7316C20.0134 30.911 19.3204 31.0014 18.626 31H11V15H18.4038ZM17.9635 21.4754C18.5802 21.4754 19.0871 21.3257 19.4843 21.0277C19.8815 20.7283 20.0801 20.2439 20.0787 19.5716C20.0787 19.1988 20.012 18.8923 19.8801 18.6536C19.7482 18.4149 19.5718 18.2271 19.351 18.0929C19.1301 17.9588 18.8774 17.8656 18.5913 17.8133C18.2968 17.7611 17.9983 17.7342 17.6983 17.7356H14.4609V21.4782L17.9635 21.4754V21.4754ZM18.1621 28.2644C18.4885 28.2658 18.8135 28.2319 19.1315 28.1641C19.4398 28.0963 19.7121 27.9847 19.9468 27.828C20.1815 27.6712 20.369 27.4579 20.5092 27.1896C20.6481 26.9213 20.7189 26.5766 20.7189 26.1586C20.7189 25.3381 20.4912 24.7505 20.0356 24.4003C19.5801 24.0486 18.9774 23.8735 18.2288 23.8735H14.4609V28.2658L18.1621 28.2644V28.2644ZM28.531 27.9282C29.0005 28.3915 29.6768 28.6231 30.5587 28.6231C31.1906 28.6231 31.7337 28.4621 32.1892 28.1415C32.6447 27.8209 32.9239 27.4805 33.0266 27.1218H35.7807C35.3404 28.5115 34.6641 29.5044 33.753 30.1018C32.8419 30.6992 31.7406 30.9986 30.4476 30.9986C29.5518 30.9986 28.7435 30.8531 28.0241 30.5622C27.3047 30.2712 26.695 29.856 26.1951 29.3179C25.6951 28.7798 25.309 28.1387 25.0382 27.3915C24.7673 26.6444 24.6312 25.8225 24.6312 24.9271C24.6312 24.0613 24.7701 23.2549 25.0493 22.5078C25.3284 21.7607 25.7256 21.1153 26.2395 20.5701C26.7534 20.025 27.3672 19.5956 28.0797 19.2821C28.7921 18.9686 29.5824 18.8118 30.449 18.8118C31.4184 18.8118 32.2628 19.0025 32.9836 19.3838C33.703 19.7651 34.2946 20.2764 34.7571 20.919C35.2196 21.5616 35.5543 22.2931 35.7598 23.1151C35.9654 23.9371 36.039 24.7957 35.9807 25.6925H27.7616C27.8047 26.7193 28.0616 27.4664 28.531 27.9282ZM32.0684 21.8341C31.6934 21.4161 31.124 21.2071 30.3601 21.2071C29.8601 21.2071 29.4449 21.2932 29.1157 21.4641C28.7852 21.6364 28.5213 21.8483 28.3227 22.1025C28.1241 22.3567 27.9852 22.625 27.9047 22.9089C27.8241 23.1928 27.7755 23.447 27.7616 23.6701H32.8517C32.703 22.8651 32.442 22.2522 32.0684 21.8341V21.8341ZM27.2256 15.8121H33.5849V17.6057H27.2256V15.8121V15.8121Z" fill="white"/>
</svg>
