<svg width="771" height="190" viewBox="0 0 771 190" fill="none" xmlns="http://www.w3.org/2000/svg">
<g clip-path="url(#clip0_645_329)">
<g clip-path="url(#clip1_645_329)">
<path d="M30.9292 -6.72549V11.2529L15.3599 20.2941L-0.219727 11.3049V-6.72549L15.3599 -15.7251L30.9292 -6.72549ZM29.3817 10.3592V-5.84216L15.3599 -13.9376L1.33824 -5.84216V10.3592L15.3599 18.4651L29.3817 10.3592Z" fill="#231F20"/>
<path d="M60.52 -6.72549V11.2529L44.9508 20.2941L29.3711 11.3049V-6.72549L44.9508 -15.7251L60.52 -6.72549ZM58.9725 10.3592V-5.84216L44.9508 -13.9376L30.9291 -5.84216V10.3592L44.9508 18.4651L58.9725 10.3592Z" fill="#231F20"/>
<path d="M90.1109 -6.72549V11.2529L74.5416 20.2941L58.9619 11.3049V-6.72549L74.5416 -15.7251L90.1109 -6.72549ZM88.5633 10.3592V-5.84216L74.5416 -13.9376L60.5199 -5.84216V10.3592L74.5416 18.4651L88.5633 10.3592Z" fill="#231F20"/>
<path d="M119.691 -6.72549V11.2529L104.132 20.2941L88.5527 11.3049V-6.72549L104.132 -15.7251L119.691 -6.72549ZM118.154 10.3592V-5.84216L104.132 -13.9376L90.1107 -5.84216V10.3592L104.132 18.4651L118.154 10.3592Z" fill="#231F20"/>
<path d="M149.282 -6.72549V11.2529L133.703 20.2422L118.123 11.2529V-6.72549L133.703 -15.7251L149.282 -6.72549ZM147.745 10.3592V-5.84216L133.723 -13.9376L119.691 -5.84216V10.3592L133.723 18.4651L147.745 10.3592Z" fill="#231F20"/>
<path d="M178.873 -6.72549V11.2529L163.294 20.2422L147.714 11.2529V-6.72549L163.294 -15.7251L178.873 -6.72549ZM177.336 10.3592V-5.84216L163.314 -13.9376L149.282 -5.84216V10.3592L163.314 18.4651L177.336 10.3592Z" fill="#231F20"/>
<path d="M208.464 -6.72549V11.2529L192.884 20.2422L177.305 11.2529V-6.72549L192.884 -15.7251L208.464 -6.72549ZM206.927 10.3592V-5.84216L192.895 -13.9376L178.873 -5.84216V10.3592L192.895 18.4651L206.927 10.3592Z" fill="#231F20"/>
<path d="M238.056 -6.72549V11.2529L222.476 20.2422L206.896 11.2529V-6.72549L222.476 -15.7251L238.056 -6.72549ZM236.519 10.3592V-5.84216L222.487 -13.9376L208.465 -5.84216V10.3592L222.487 18.4651L236.519 10.3592Z" fill="#231F20"/>
<path d="M267.647 -6.72549V11.2529L252.067 20.2422L236.487 11.2529V-6.72549L252.067 -15.7251L267.647 -6.72549ZM266.099 10.3592V-5.84216L252.077 -13.9376L238.056 -5.84216V10.3592L252.077 18.4651L266.099 10.3592Z" fill="#231F20"/>
<path d="M297.237 -6.72549V11.2529L281.658 20.2422L266.078 11.2529V-6.72549L281.658 -15.7251L297.237 -6.72549ZM295.69 10.3592V-5.84216L281.668 -13.9376L267.646 -5.84216V10.3592L281.668 18.4651L295.69 10.3592Z" fill="#231F20"/>
<path d="M326.828 -6.72549V11.2529L311.249 20.2422L295.669 11.2529V-6.72549L311.249 -15.7251L326.828 -6.72549ZM325.281 10.3592V-5.84216L311.259 -13.9376L297.237 -5.84216V10.3592L311.259 18.4651L325.281 10.3592Z" fill="#231F20"/>
<path d="M356.409 -6.72549V11.2529L340.83 20.2422L325.25 11.2529V-6.72549L340.83 -15.7251L356.409 -6.72549ZM354.872 10.3592V-5.84216L340.85 -13.9376L326.829 -5.84216V10.3592L340.85 18.4651L354.872 10.3592Z" fill="#231F20"/>
<path d="M386 -6.72549V11.2529L370.441 20.2941L354.861 11.3049V-6.72549L370.441 -15.7251L386 -6.72549ZM384.463 10.3592V-5.84216L370.441 -13.9376L356.409 -5.84216V10.3592L370.441 18.4651L384.463 10.3592Z" fill="#231F20"/>
<path d="M16.1593 18.912V36.9216L0.579674 45.9212L-15 36.9216V18.912L0.579674 9.90196L16.1593 18.912ZM14.591 36.0071V19.8057L0.579674 11.6998L-13.4628 19.8057V36.0071L0.579674 44.1026L14.591 36.0071Z" fill="#231F20"/>
<path d="M45.7189 18.912V36.9216L30.1392 45.9212L14.5596 36.9216V18.912L30.1392 9.92274L45.7189 18.912ZM44.2025 36.0071V19.8057L30.1808 11.6998L16.1591 19.8057V36.0071L30.1912 44.1026L44.2025 36.0071Z" fill="#231F20"/>
<path d="M75.3625 18.912V36.9216L59.7828 45.9212L44.2031 36.9216V18.912L59.7828 9.90196L75.3625 18.912ZM73.7733 36.0071V19.8057L59.7828 11.6998L45.7611 19.8057V36.0071L59.7828 44.1026L73.7733 36.0071Z" fill="#231F20"/>
<path d="M104.902 18.912V36.9216L89.3219 45.9212L73.7422 36.9216V18.912L89.3219 9.92274L104.902 18.912ZM103.406 36.0071V19.8057L89.3738 11.6998L75.3625 19.8057V36.0071L89.3842 44.1026L103.406 36.0071Z" fill="#231F20"/>
<path d="M134.492 18.912V36.9216L118.912 45.9212L103.405 36.9216V18.912L118.985 9.92274L134.492 18.912ZM132.944 36.0071V19.8057L118.923 11.6998L104.901 19.8057V36.0071L118.923 44.1026L132.944 36.0071Z" fill="#231F20"/>
<path d="M164.083 18.912V36.9216L148.504 45.9212L132.924 36.9216V18.912L148.504 9.92274L164.083 18.912ZM162.536 36.0071V19.8057L148.514 11.6998L134.492 19.8057V36.0071L148.514 44.1026L162.536 36.0071Z" fill="#231F20"/>
<path d="M193.674 18.912V36.9216L178.094 45.9212L162.515 36.9216V18.912L178.094 9.92274L193.674 18.912ZM192.126 36.0071V19.8057L178.105 11.6998L164.083 19.8057V36.0071L178.105 44.1026L192.126 36.0071Z" fill="#231F20"/>
<path d="M223.255 18.912V36.9216L207.675 45.9212L192.096 36.9216V18.912L207.675 9.92274L223.255 18.912ZM221.718 36.0071V19.8057L207.696 11.6998L193.674 19.8057V36.0071L207.696 44.1026L221.718 36.0071Z" fill="#231F20"/>
<path d="M252.846 18.912V36.9216L237.266 45.9212L221.687 36.9216V18.912L237.266 9.92274L252.846 18.912ZM251.309 36.0071V19.8057L237.287 11.6998L223.255 19.8057V36.0071L237.287 44.1026L251.309 36.0071Z" fill="#231F20"/>
<path d="M282.437 18.912V36.9216L266.857 45.9212L251.277 36.9216V18.912L266.857 9.92274L282.437 18.912ZM280.9 36.0071V19.8057L266.878 11.6998L252.846 19.8057V36.0071L266.878 44.1026L280.9 36.0071Z" fill="#231F20"/>
<path d="M312.028 18.912V36.9216L296.448 45.9212L280.868 36.9216V18.912L296.448 9.92274L312.028 18.912ZM310.49 36.0071V19.8057L296.458 11.6998L282.437 19.8057V36.0071L296.458 44.1026L310.49 36.0071Z" fill="#231F20"/>
<path d="M341.618 18.912V36.9216L326.039 45.9212L310.459 36.9216V18.912L326.039 9.92274L341.618 18.912ZM340.081 36.0071V19.8057L326.049 11.6998L312.027 19.8057V36.0071L326.049 44.1026L340.081 36.0071Z" fill="#231F20"/>
<path d="M371.21 18.912V36.9216L355.63 45.9212L340.051 36.9216V18.912L355.63 9.92274L371.21 18.912ZM369.663 36.0071V19.8057L355.641 11.6998L341.619 19.8057V36.0071L355.641 44.1026L369.663 36.0071Z" fill="#231F20"/>
<path d="M30.9289 44.5494V62.5382L15.3492 71.5275L-0.230469 62.5382V44.5494L15.3492 35.5602L30.9289 44.5494ZM29.3813 61.6445V45.4431L15.3596 37.3373L1.33788 45.4431V61.6445L15.3596 69.74L29.3813 61.6445Z" fill="#231F20"/>
<path d="M60.5197 44.5494V62.5382L44.94 71.5275L29.3604 62.5382V44.5494L44.94 35.5602L60.5197 44.5494ZM58.9721 61.6445V45.4431L44.9504 37.3373L30.9287 45.4431V61.6445L44.9504 69.74L58.9721 61.6445Z" fill="#231F20"/>
<path d="M90.1105 44.5494V62.5382L74.5308 71.5275L58.9512 62.5382V44.5494L74.5308 35.5602L90.1105 44.5494ZM88.5629 61.6445V45.4431L74.5412 37.3373L60.5195 45.4431V61.6445L74.5412 69.74L88.5629 61.6445Z" fill="#231F20"/>
<path d="M119.692 44.5494V62.5382L104.112 71.5275L88.5322 62.5382V44.5494L104.112 35.5602L119.692 44.5494ZM118.154 61.6445V45.4431L104.133 37.3373L90.111 45.4431V61.6445L104.133 69.74L118.154 61.6445Z" fill="#231F20"/>
<path d="M149.282 44.5494V62.5382L133.703 71.5275L118.123 62.5382V44.5494L133.703 35.5602L149.282 44.5494ZM147.745 61.6445V45.4431L133.723 37.3373L119.691 45.4431V61.6445L133.723 69.74L147.745 61.6445Z" fill="#231F20"/>
<path d="M178.873 44.5494V62.5382L163.294 71.5275L147.714 62.5382V44.5494L163.294 35.5602L178.873 44.5494ZM177.336 61.6445V45.4431L163.314 37.3373L149.282 45.4431V61.6445L163.314 69.74L177.336 61.6445Z" fill="#231F20"/>
<path d="M208.464 44.5494V62.5382L192.884 71.5275L177.305 62.5382V44.5494L192.884 35.5602L208.464 44.5494ZM206.927 61.6445V45.4431L192.895 37.3373L178.873 45.4431V61.6445L192.895 69.74L206.927 61.6445Z" fill="#231F20"/>
<path d="M238.056 44.5494V62.5382L222.476 71.5275L206.896 62.5382V44.5494L222.476 35.5602L238.056 44.5494ZM236.519 61.6445V45.4431L222.487 37.3373L208.465 45.4431V61.6445L222.487 69.74L236.519 61.6445Z" fill="#231F20"/>
<path d="M267.647 44.5494V62.5382L252.067 71.5275L236.487 62.5382V44.5494L252.067 35.5602L267.647 44.5494ZM266.099 61.6445V45.4431L252.077 37.3373L238.056 45.4431V61.6445L252.077 69.74L266.099 61.6445Z" fill="#231F20"/>
<path d="M297.237 44.5494V62.5382L281.658 71.5275L266.078 62.5382V44.5494L281.658 35.5602L297.237 44.5494ZM295.69 61.6445V45.4431L281.668 37.3373L267.646 45.4431V61.6445L281.668 69.74L295.69 61.6445Z" fill="#231F20"/>
<path d="M326.828 44.5494V62.5382L311.249 71.5275L295.669 62.5382V44.5494L311.249 35.5602L326.828 44.5494ZM325.281 61.6445V45.4431L311.259 37.3373L297.237 45.4431V61.6445L311.259 69.74L325.281 61.6445Z" fill="#231F20"/>
<path d="M356.409 44.5494V62.5382L340.83 71.5275L325.25 62.5382V44.5494L340.83 35.5602L356.409 44.5494ZM354.872 61.6445V45.4431L340.85 37.3373L326.829 45.4431V61.6445L340.85 69.74L354.872 61.6445Z" fill="#231F20"/>
<path d="M386 44.5494V62.5382L370.42 71.5275L354.841 62.5382V44.5494L370.42 35.5602L386 44.5494ZM384.463 61.6445V45.4431L370.441 37.3373L356.409 45.4431V61.6445L370.441 69.74L384.463 61.6445Z" fill="#231F20"/>
<path d="M16.1593 70.1765V88.1653L0.579674 97.1961L-15 88.1757V70.1765L0.579674 61.1873L16.1593 70.1765ZM14.6222 87.2716V71.0806L0.579674 62.9747L-13.4524 71.0806V87.282L0.579674 95.3878L14.6222 87.2716Z" fill="#231F20"/>
<path d="M45.7189 70.1765V88.1653L30.1392 97.1545L14.5596 88.1653V70.1765L30.1392 61.1873L45.7189 70.1765ZM44.2025 87.282V71.0806L30.1808 62.9747L16.1591 71.0806V87.282L30.1912 95.3878L44.2025 87.282Z" fill="#231F20"/>
<path d="M75.3625 70.1765V88.1653L59.7828 97.1961L44.2031 88.2069V70.1765L59.7828 61.1873L75.3625 70.1765ZM73.8253 87.2716V71.0806L59.7828 62.9747L45.7611 71.0806V87.282L59.7828 95.3878L73.8253 87.2716Z" fill="#231F20"/>
<path d="M104.902 70.1765V88.1653L89.3219 97.1545L73.7422 88.1653V70.1765L89.3219 61.1873L104.902 70.1765ZM103.406 87.282V71.0806L89.3738 62.9747L75.3625 71.0806V87.282L89.3842 95.3878L103.406 87.282Z" fill="#231F20"/>
<path d="M134.492 70.1765V88.1653L118.913 97.1545L103.333 88.1653V70.1765L118.913 61.1873L134.492 70.1765ZM132.945 87.2716V71.0806L118.923 62.9747L104.901 71.0806V87.282L118.923 95.3878L132.945 87.2716Z" fill="#231F20"/>
<path d="M164.083 70.1765V88.1653L148.504 97.1545L132.924 88.1653V70.1765L148.504 61.1873L164.083 70.1765ZM162.536 87.2716V71.0806L148.514 62.9747L134.492 71.0806V87.282L148.514 95.3878L162.536 87.2716Z" fill="#231F20"/>
<path d="M193.674 70.1765V88.1653L178.094 97.1545L162.515 88.1653V70.1765L178.094 61.1873L193.674 70.1765ZM192.126 87.2716V71.0806L178.105 62.9747L164.083 71.0806V87.282L178.105 95.3878L192.126 87.2716Z" fill="#231F20"/>
<path d="M223.255 70.1765V88.1653L207.675 97.1545L192.096 88.1653V70.1765L207.675 61.1873L223.255 70.1765ZM221.718 87.2716V71.0806L207.696 62.9747L193.674 71.0806V87.282L207.696 95.3878L221.718 87.2716Z" fill="#231F20"/>
<path d="M252.846 70.1765V88.1653L237.266 97.1545L221.687 88.1653V70.1765L237.266 61.1873L252.846 70.1765ZM251.309 87.2716V71.0806L237.287 62.9747L223.255 71.0806V87.282L237.287 95.3878L251.309 87.2716Z" fill="#231F20"/>
<path d="M282.437 70.1765V88.1653L266.857 97.1545L251.277 88.1653V70.1765L266.857 61.1873L282.437 70.1765ZM280.9 87.2716V71.0806L266.878 62.9747L252.846 71.0806V87.282L266.878 95.3878L280.9 87.2716Z" fill="#231F20"/>
<path d="M312.028 70.1765V88.1653L296.448 97.1545L280.868 88.1653V70.1765L296.448 61.1873L312.028 70.1765ZM310.49 87.2716V71.0806L296.458 62.9747L282.437 71.0806V87.282L296.458 95.3878L310.49 87.2716Z" fill="#231F20"/>
<path d="M341.618 70.1765V88.1653L326.039 97.1545L310.459 88.1653V70.1765L326.039 61.1873L341.618 70.1765ZM340.081 87.2716V71.0806L326.049 62.9747L312.027 71.0806V87.282L326.049 95.3878L340.081 87.2716Z" fill="#231F20"/>
<path d="M371.21 70.1765V88.1653L355.63 97.1545L340.051 88.1653V70.1765L355.63 61.1873L371.21 70.1765ZM369.663 87.2716V71.0806L355.641 62.9747L341.619 71.0806V87.282L355.641 95.3878L369.663 87.2716Z" fill="#231F20"/>
<path d="M30.9289 95.8243V113.824L15.3492 122.813L-0.230469 113.824V95.8243L15.3492 86.8351L30.9289 95.8243ZM29.3813 112.919V96.718L15.3596 88.6226L1.33788 96.718V112.919L15.3596 121.025L29.3813 112.919Z" fill="#231F20"/>
<path d="M60.5197 95.8243V113.824L44.94 122.813L29.3604 113.824V95.8243L44.94 86.8351L60.5197 95.8243ZM58.9721 112.919V96.718L44.9504 88.6226L30.9287 96.718V112.919L44.9504 121.025L58.9721 112.919Z" fill="#231F20"/>
<path d="M90.1105 95.8243V113.824L74.5308 122.813L58.9512 113.824V95.8243L74.5308 86.8351L90.1105 95.8243ZM88.5629 112.919V96.718L74.5412 88.6226L60.5195 96.718V112.919L74.5412 121.025L88.5629 112.919Z" fill="#231F20"/>
<path d="M119.692 95.8243V113.824L104.112 122.813L88.5322 113.824V95.8243L104.112 86.8351L119.692 95.8243ZM118.154 112.919V96.718L104.133 88.6226L90.111 96.718V112.919L104.133 121.025L118.154 112.919Z" fill="#231F20"/>
<path d="M149.282 95.8243V113.824L133.703 122.813L118.123 113.824V95.8243L133.703 86.8351L149.282 95.8243ZM147.745 112.919V96.718L133.723 88.6226L119.691 96.718V112.919L133.723 121.025L147.745 112.919Z" fill="#231F20"/>
<path d="M178.873 95.8243V113.824L163.294 122.813L147.714 113.824V95.8243L163.294 86.8351L178.873 95.8243ZM177.336 112.919V96.718L163.314 88.6226L149.282 96.718V112.919L163.314 121.025L177.336 112.919Z" fill="#231F20"/>
<path d="M208.464 95.8243V113.824L192.884 122.813L177.305 113.824V95.8243L192.884 86.8351L208.464 95.8243ZM206.927 112.919V96.718L192.895 88.6226L178.873 96.718V112.919L192.895 121.025L206.927 112.919Z" fill="#231F20"/>
<path d="M238.056 95.8243V113.824L222.476 122.813L206.896 113.824V95.8243L222.476 86.8351L238.056 95.8243ZM236.519 112.919V96.718L222.487 88.6226L208.465 96.718V112.919L222.487 121.025L236.519 112.919Z" fill="#231F20"/>
<path d="M267.647 95.8243V113.824L252.067 122.813L236.487 113.824V95.8243L252.067 86.8351L267.647 95.8243ZM266.099 112.919V96.718L252.077 88.6226L238.056 96.718V112.919L252.077 121.025L266.099 112.919Z" fill="#231F20"/>
<path d="M297.237 95.8243V113.824L281.658 122.813L266.078 113.824V95.8243L281.658 86.8351L297.237 95.8243ZM295.69 112.919V96.718L281.668 88.6226L267.646 96.718V112.919L281.668 121.025L295.69 112.919Z" fill="#231F20"/>
<path d="M326.828 95.8243V113.824L311.249 122.813L295.669 113.824V95.8243L311.249 86.8351L326.828 95.8243ZM325.281 112.919V96.718L311.259 88.6226L297.237 96.718V112.919L311.259 121.025L325.281 112.919Z" fill="#231F20"/>
<path d="M356.409 95.8243V113.824L340.83 122.813L325.25 113.824V95.8243L340.83 86.8351L356.409 95.8243ZM354.872 112.919V96.718L340.85 88.6226L326.829 96.718V112.919L340.85 121.025L354.872 112.919Z" fill="#231F20"/>
<path d="M386 95.8243V113.824L370.42 122.813L354.841 113.824V95.8243L370.42 86.8351L386 95.8243ZM384.463 112.919V96.718L370.441 88.6226L356.409 96.718V112.919L370.441 121.025L384.463 112.919Z" fill="#231F20"/>
<path d="M16.1593 121.472V139.451L0.579674 148.44L-15 139.451V121.472L0.579674 112.473L16.1593 121.472ZM14.591 138.557V122.356L0.579674 114.26L-13.4628 122.356V138.557L0.579674 146.663L14.591 138.557Z" fill="#231F20"/>
<path d="M45.7189 121.472V139.451L30.1392 148.44L14.5596 139.451V121.472L30.1392 112.473L45.7189 121.472ZM44.2025 138.557V122.356L30.1808 114.26L16.1591 122.356V138.557L30.1912 146.663L44.2025 138.557Z" fill="#231F20"/>
<path d="M75.3625 121.472V139.451L59.7828 148.44L44.2031 139.451V121.472L59.7828 112.473L75.3625 121.472ZM73.7733 138.557V122.356L59.7828 114.26L45.7611 122.356V138.557L59.7828 146.663L73.7733 138.557Z" fill="#231F20"/>
<path d="M104.902 121.472V139.451L89.3219 148.44L73.7422 139.451V121.472L89.3219 112.473L104.902 121.472ZM103.406 138.557V122.356L89.3738 114.26L75.3625 122.356V138.557L89.3842 146.663L103.406 138.557Z" fill="#231F20"/>
<path d="M134.492 121.472V139.451L118.913 148.44L103.333 139.451V121.472L118.913 112.473L134.492 121.472ZM132.945 138.557V122.356L118.923 114.26L104.901 122.356V138.557L118.923 146.663L132.945 138.557Z" fill="#231F20"/>
<path d="M164.083 121.472V139.451L148.504 148.44L132.924 139.451V121.472L148.504 112.473L164.083 121.472ZM162.536 138.557V122.356L148.514 114.26L134.492 122.356V138.557L148.514 146.663L162.536 138.557Z" fill="#231F20"/>
<path d="M193.674 121.472V139.451L178.094 148.44L162.515 139.451V121.472L178.094 112.473L193.674 121.472ZM192.126 138.557V122.356L178.105 114.26L164.083 122.356V138.557L178.105 146.663L192.126 138.557Z" fill="#231F20"/>
<path d="M223.255 121.472V139.451L207.675 148.44L192.096 139.451V121.472L207.675 112.473L223.255 121.472ZM221.718 138.557V122.356L207.696 114.26L193.674 122.356V138.557L207.696 146.663L221.718 138.557Z" fill="#231F20"/>
<path d="M252.846 121.472V139.451L237.266 148.44L221.687 139.451V121.472L237.266 112.473L252.846 121.472ZM251.309 138.557V122.356L237.287 114.26L223.255 122.356V138.557L237.287 146.663L251.309 138.557Z" fill="#231F20"/>
<path d="M282.437 121.472V139.451L266.857 148.44L251.277 139.451V121.472L266.857 112.473L282.437 121.472ZM280.9 138.557V122.356L266.878 114.26L252.846 122.356V138.557L266.878 146.663L280.9 138.557Z" fill="#231F20"/>
<path d="M312.028 121.472V139.451L296.448 148.44L280.868 139.451V121.472L296.448 112.473L312.028 121.472ZM310.49 138.557V122.356L296.458 114.26L282.437 122.356V138.557L296.458 146.663L310.49 138.557Z" fill="#231F20"/>
<path d="M341.618 121.472V139.451L326.039 148.44L310.459 139.451V121.472L326.039 112.473L341.618 121.472ZM340.081 138.557V122.356L326.049 114.26L312.027 122.356V138.557L326.049 146.663L340.081 138.557Z" fill="#231F20"/>
<path d="M371.21 121.472V139.451L355.63 148.44L340.051 139.451V121.472L355.63 112.473L371.21 121.472ZM369.663 138.557V122.356L355.641 114.26L341.619 122.356V138.557L355.641 146.663L369.663 138.557Z" fill="#231F20"/>
<path d="M30.9289 147.078V165.057L15.3492 174.056L-0.230469 165.057V147.078L15.3492 138.089L30.9289 147.078ZM29.3813 164.174V148.003L15.3596 139.897L1.33788 148.003V164.205L15.3596 172.3L29.3813 164.174Z" fill="#231F20"/>
<path d="M60.5197 147.078V165.057L44.94 174.056L29.3604 165.057V147.078L44.94 138.089L60.5197 147.078ZM58.9721 164.174V148.003L44.9504 139.897L30.9287 148.003V164.205L44.9504 172.3L58.9721 164.174Z" fill="#231F20"/>
<path d="M90.1105 147.078V165.057L74.5308 174.056L58.9512 165.057V147.078L74.5308 138.089L90.1105 147.078ZM88.5629 164.174V148.003L74.5412 139.897L60.5195 148.003V164.205L74.5412 172.3L88.5629 164.174Z" fill="#231F20"/>
<path d="M119.692 147.078V165.057L104.112 174.056L88.5322 165.057V147.078L104.112 138.089L119.692 147.078ZM118.154 164.174V148.003L104.133 139.897L90.111 148.003V164.205L104.133 172.3L118.154 164.174Z" fill="#231F20"/>
<path d="M149.282 147.078V165.057L133.703 174.056L118.123 165.057V147.078L133.703 138.089L149.282 147.078ZM147.745 164.174V148.003L133.723 139.897L119.691 148.003V164.205L133.723 172.3L147.745 164.174Z" fill="#231F20"/>
<path d="M178.873 147.078V165.057L163.294 174.056L147.714 165.057V147.078L163.294 138.089L178.873 147.078ZM177.336 164.174V148.003L163.314 139.897L149.282 148.003V164.205L163.314 172.3L177.336 164.174Z" fill="#231F20"/>
<path d="M208.464 147.078V165.057L192.884 174.056L177.305 165.057V147.078L192.884 138.089L208.464 147.078ZM206.927 164.174V148.003L192.895 139.897L178.873 148.003V164.205L192.895 172.3L206.927 164.174Z" fill="#231F20"/>
<path d="M238.056 147.078V165.057L222.476 174.056L206.896 165.057V147.078L222.476 138.089L238.056 147.078ZM236.519 164.174V148.003L222.487 139.897L208.465 148.003V164.205L222.487 172.3L236.519 164.174Z" fill="#231F20"/>
<path d="M267.647 147.078V165.057L252.067 174.056L236.487 165.057V147.078L252.067 138.089L267.647 147.078ZM266.099 164.174V148.003L252.077 139.897L238.056 148.003V164.205L252.077 172.3L266.099 164.174Z" fill="#231F20"/>
<path d="M297.237 147.078V165.057L281.658 174.056L266.078 165.057V147.078L281.658 138.089L297.237 147.078ZM295.69 164.174V148.003L281.668 139.897L267.646 148.003V164.205L281.668 172.3L295.69 164.174Z" fill="#231F20"/>
<path d="M326.828 147.078V165.057L311.249 174.056L295.669 165.057V147.078L311.249 138.089L326.828 147.078ZM325.281 164.174V148.003L311.259 139.897L297.237 148.003V164.205L311.259 172.3L325.281 164.174Z" fill="#231F20"/>
<path d="M356.409 147.078V165.057L340.83 174.056L325.25 165.057V147.078L340.83 138.089L356.409 147.078ZM354.872 164.174V148.003L340.85 139.897L326.829 148.003V164.205L340.85 172.3L354.872 164.174Z" fill="#231F20"/>
<path d="M386 147.078V165.057L370.42 174.056L354.841 165.057V147.078L370.42 138.089L386 147.078ZM384.463 164.174V148.003L370.441 139.897L356.409 148.003V164.205L370.441 172.3L384.463 164.174Z" fill="#231F20"/>
<path d="M16.1593 172.747V190.725L0.579674 199.715L-15 190.725V172.747L0.579674 163.758L16.1593 172.747ZM14.6222 189.842V173.641L0.579674 165.535L-13.4524 173.641V189.842L0.579674 197.938L14.6222 189.842Z" fill="#231F20"/>
<path d="M45.7189 172.747V190.725L30.1392 199.715L14.5596 190.725V172.747L30.1392 163.758L45.7189 172.747ZM44.2025 189.842V173.641L30.1808 165.535L16.1591 173.641V189.842L30.1912 197.938L44.2025 189.842Z" fill="#231F20"/>
<path d="M75.3625 172.747V190.725L59.7828 199.715L44.2031 190.725V172.747L59.7828 163.758L75.3625 172.747ZM73.8253 189.842V173.641L59.7828 165.535L45.7611 173.641V189.842L59.7828 197.938L73.8253 189.842Z" fill="#231F20"/>
<path d="M104.902 172.747V190.725L89.3219 199.715L73.7422 190.725V172.747L89.3219 163.758L104.902 172.747ZM103.406 189.842V173.641L89.3738 165.535L75.3625 173.641V189.842L89.3842 197.938L103.406 189.842Z" fill="#231F20"/>
<path d="M134.492 172.747V190.725L118.912 199.715L103.405 190.725V172.747L118.985 163.758L134.492 172.747ZM132.944 189.842V173.641L118.923 165.535L104.901 173.641V189.842L118.923 197.938L132.944 189.842Z" fill="#231F20"/>
<path d="M164.083 172.747V190.725L148.504 199.715L132.924 190.725V172.747L148.504 163.758L164.083 172.747ZM162.536 189.842V173.641L148.514 165.535L134.492 173.641V189.842L148.514 197.938L162.536 189.842Z" fill="#231F20"/>
<path d="M193.674 172.747V190.725L178.094 199.715L162.515 190.725V172.747L178.094 163.758L193.674 172.747ZM192.126 189.842V173.641L178.105 165.535L164.083 173.641V189.842L178.105 197.938L192.126 189.842Z" fill="#231F20"/>
<path d="M223.255 172.747V190.725L207.675 199.715L192.096 190.725V172.747L207.675 163.758L223.255 172.747ZM221.718 189.842V173.641L207.696 165.535L193.674 173.641V189.842L207.696 197.938L221.718 189.842Z" fill="#231F20"/>
<path d="M252.846 172.747V190.725L237.266 199.715L221.687 190.725V172.747L237.266 163.758L252.846 172.747ZM251.309 189.842V173.641L237.287 165.535L223.255 173.641V189.842L237.287 197.938L251.309 189.842Z" fill="#231F20"/>
<path d="M282.437 172.747V190.725L266.857 199.715L251.277 190.725V172.747L266.857 163.758L282.437 172.747ZM280.9 189.842V173.641L266.878 165.535L252.846 173.641V189.842L266.878 197.938L280.9 189.842Z" fill="#231F20"/>
<path d="M312.028 172.747V190.725L296.448 199.715L280.868 190.725V172.747L296.448 163.758L312.028 172.747ZM310.49 189.842V173.641L296.458 165.535L282.437 173.641V189.842L296.458 197.938L310.49 189.842Z" fill="#231F20"/>
<path d="M341.618 172.747V190.725L326.039 199.715L310.459 190.725V172.747L326.039 163.758L341.618 172.747ZM340.081 189.842V173.641L326.049 165.535L312.027 173.641V189.842L326.049 197.938L340.081 189.842Z" fill="#231F20"/>
<path d="M371.21 172.747V190.725L355.63 199.715L340.051 190.725V172.747L355.63 163.758L371.21 172.747ZM369.663 189.842V173.641L355.641 165.535L341.619 173.641V189.842L355.641 197.938L369.663 189.842Z" fill="#231F20"/>
</g>
<g clip-path="url(#clip2_645_329)">
<path d="M416.159 -6.37333V11.6155L400.58 20.6047L385 11.6155V-6.37333L400.58 -15.3625L416.159 -6.37333ZM414.591 10.7218V-5.47961L400.58 -13.5751L386.537 -5.47961V10.7218L400.58 18.8276L414.591 10.7218Z" fill="#231F20"/>
<path d="M445.719 -6.37333V11.6155L430.139 20.6047L414.56 11.6155V-6.37333L430.139 -15.3625L445.719 -6.37333ZM444.202 10.7218V-5.47961L430.181 -13.5751L416.159 -5.47961V10.7218L430.191 18.8276L444.202 10.7218Z" fill="#231F20"/>
<path d="M475.362 -6.37333V11.6155L459.783 20.6047L444.203 11.6155V-6.37333L459.783 -15.3625L475.362 -6.37333ZM473.773 10.7218V-5.47961L459.783 -13.5751L445.761 -5.47961V10.7218L459.783 18.8276L473.773 10.7218Z" fill="#231F20"/>
<path d="M504.902 -6.37333V11.6155L489.322 20.6047L473.742 11.6155V-6.37333L489.322 -15.3625L504.902 -6.37333ZM503.406 10.7218V-5.47961L489.374 -13.5751L475.362 -5.47961V10.7218L489.384 18.8276L503.406 10.7218Z" fill="#231F20"/>
<path d="M534.492 -6.37333V11.6155L518.913 20.6047L503.333 11.6155V-6.37333L518.913 -15.3625L534.492 -6.37333ZM532.945 10.7218V-5.47961L518.923 -13.5751L504.901 -5.47961V10.7218L518.923 18.8276L532.945 10.7218Z" fill="#231F20"/>
<path d="M564.083 -6.37333V11.6155L548.504 20.6047L532.924 11.6155V-6.37333L548.504 -15.3625L564.083 -6.37333ZM562.536 10.7218V-5.47961L548.514 -13.5751L534.492 -5.47961V10.7218L548.514 18.8276L562.536 10.7218Z" fill="#231F20"/>
<path d="M593.674 -6.37333V11.6155L578.094 20.6047L562.515 11.6155V-6.37333L578.094 -15.3625L593.674 -6.37333ZM592.126 10.7218V-5.47961L578.105 -13.5751L564.083 -5.47961V10.7218L578.105 18.8276L592.126 10.7218Z" fill="#231F20"/>
<path d="M623.255 -6.37333V11.6155L607.675 20.6047L592.096 11.6155V-6.37333L607.675 -15.3625L623.255 -6.37333ZM621.718 10.7218V-5.47961L607.696 -13.5751L593.674 -5.47961V10.7218L607.696 18.8276L621.718 10.7218Z" fill="#231F20"/>
<path d="M652.846 -6.37333V11.6155L637.266 20.6047L621.687 11.6155V-6.37333L637.266 -15.3625L652.846 -6.37333ZM651.309 10.7218V-5.47961L637.287 -13.5751L623.255 -5.47961V10.7218L637.287 18.8276L651.309 10.7218Z" fill="#231F20"/>
<path d="M682.437 -6.37333V11.6155L666.857 20.6047L651.277 11.6155V-6.37333L666.857 -15.3625L682.437 -6.37333ZM680.9 10.7218V-5.47961L666.878 -13.5751L652.846 -5.47961V10.7218L666.878 18.8276L680.9 10.7218Z" fill="#231F20"/>
<path d="M712.028 -6.37333V11.6155L696.448 20.6047L680.868 11.6155V-6.37333L696.448 -15.3625L712.028 -6.37333ZM710.49 10.7218V-5.47961L696.458 -13.5751L682.437 -5.47961V10.7218L696.458 18.8276L710.49 10.7218Z" fill="#231F20"/>
<path d="M741.618 -6.37333V11.6155L726.039 20.6047L710.459 11.6155V-6.37333L726.039 -15.3625L741.618 -6.37333ZM740.081 10.7218V-5.47961L726.049 -13.5751L712.027 -5.47961V10.7218L726.049 18.8276L740.081 10.7218Z" fill="#231F20"/>
<path d="M771.21 -6.37333V11.6155L755.63 20.6047L740.051 11.6155V-6.37333L755.63 -15.3625L771.21 -6.37333ZM769.663 10.7218V-5.47961L755.641 -13.5751L741.619 -5.47961V10.7218L755.641 18.8276L769.663 10.7218Z" fill="#231F20"/>
<path d="M430.929 19.2745V37.2529L415.36 46.2941L399.78 37.3049V19.2745L415.36 10.2749L430.929 19.2745ZM429.382 36.3592V20.1578L415.36 12.0624L401.338 20.1578V36.3592L415.36 44.4651L429.382 36.3592Z" fill="#231F20"/>
<path d="M460.52 19.2745V37.2529L444.951 46.2941L429.371 37.3049V19.2745L444.951 10.2749L460.52 19.2745ZM458.972 36.3592V20.1578L444.951 12.0624L430.929 20.1578V36.3592L444.951 44.4651L458.972 36.3592Z" fill="#231F20"/>
<path d="M490.111 19.2745V37.2529L474.542 46.2941L458.962 37.3049V19.2745L474.542 10.2749L490.111 19.2745ZM488.563 36.3592V20.1578L474.542 12.0624L460.52 20.1578V36.3592L474.542 44.4651L488.563 36.3592Z" fill="#231F20"/>
<path d="M519.691 19.2745V37.2529L504.132 46.2941L488.553 37.3049V19.2745L504.132 10.2749L519.691 19.2745ZM518.154 36.3592V20.1578L504.132 12.0624L490.111 20.1578V36.3592L504.132 44.4651L518.154 36.3592Z" fill="#231F20"/>
<path d="M549.282 19.2745V37.2529L533.703 46.2422L518.123 37.2529V19.2745L533.703 10.2749L549.282 19.2745ZM547.745 36.3592V20.1578L533.723 12.0624L519.691 20.1578V36.3592L533.723 44.4651L547.745 36.3592Z" fill="#231F20"/>
<path d="M578.873 19.2745V37.2529L563.294 46.2422L547.714 37.2529V19.2745L563.294 10.2749L578.873 19.2745ZM577.336 36.3592V20.1578L563.314 12.0624L549.282 20.1578V36.3592L563.314 44.4651L577.336 36.3592Z" fill="#231F20"/>
<path d="M608.464 19.2745V37.2529L592.884 46.2422L577.305 37.2529V19.2745L592.884 10.2749L608.464 19.2745ZM606.927 36.3592V20.1578L592.895 12.0624L578.873 20.1578V36.3592L592.895 44.4651L606.927 36.3592Z" fill="#231F20"/>
<path d="M638.056 19.2745V37.2529L622.476 46.2422L606.896 37.2529V19.2745L622.476 10.2749L638.056 19.2745ZM636.519 36.3592V20.1578L622.487 12.0624L608.465 20.1578V36.3592L622.487 44.4651L636.519 36.3592Z" fill="#231F20"/>
<path d="M667.647 19.2745V37.2529L652.067 46.2422L636.487 37.2529V19.2745L652.067 10.2749L667.647 19.2745ZM666.099 36.3592V20.1578L652.077 12.0624L638.056 20.1578V36.3592L652.077 44.4651L666.099 36.3592Z" fill="#231F20"/>
<path d="M697.237 19.2745V37.2529L681.658 46.2422L666.078 37.2529V19.2745L681.658 10.2749L697.237 19.2745ZM695.69 36.3592V20.1578L681.668 12.0624L667.646 20.1578V36.3592L681.668 44.4651L695.69 36.3592Z" fill="#231F20"/>
<path d="M726.828 19.2745V37.2529L711.249 46.2422L695.669 37.2529V19.2745L711.249 10.2749L726.828 19.2745ZM725.281 36.3592V20.1578L711.259 12.0624L697.237 20.1578V36.3592L711.259 44.4651L725.281 36.3592Z" fill="#231F20"/>
<path d="M756.409 19.2745V37.2529L740.83 46.2422L725.25 37.2529V19.2745L740.83 10.2749L756.409 19.2745ZM754.872 36.3592V20.1578L740.85 12.0624L726.829 20.1578V36.3592L740.85 44.4651L754.872 36.3592Z" fill="#231F20"/>
<path d="M786 19.2745V37.2529L770.441 46.2941L754.861 37.3049V19.2745L770.441 10.2749L786 19.2745ZM784.463 36.3592V20.1578L770.441 12.0624L756.409 20.1578V36.3592L770.441 44.4651L784.463 36.3592Z" fill="#231F20"/>
<path d="M416.159 44.912V62.9216L400.58 71.9212L385 62.9216V44.912L400.58 35.902L416.159 44.912ZM414.591 62.0071V45.8057L400.58 37.6998L386.537 45.8057V62.0071L400.58 70.1026L414.591 62.0071Z" fill="#231F20"/>
<path d="M445.719 44.912V62.9216L430.139 71.9212L414.56 62.9216V44.912L430.139 35.9227L445.719 44.912ZM444.202 62.0071V45.8057L430.181 37.6998L416.159 45.8057V62.0071L430.191 70.1026L444.202 62.0071Z" fill="#231F20"/>
<path d="M475.362 44.912V62.9216L459.783 71.9212L444.203 62.9216V44.912L459.783 35.902L475.362 44.912ZM473.773 62.0071V45.8057L459.783 37.6998L445.761 45.8057V62.0071L459.783 70.1026L473.773 62.0071Z" fill="#231F20"/>
<path d="M504.902 44.912V62.9216L489.322 71.9212L473.742 62.9216V44.912L489.322 35.9227L504.902 44.912ZM503.406 62.0071V45.8057L489.374 37.6998L475.362 45.8057V62.0071L489.384 70.1026L503.406 62.0071Z" fill="#231F20"/>
<path d="M534.492 44.912V62.9216L518.912 71.9212L503.405 62.9216V44.912L518.985 35.9227L534.492 44.912ZM532.944 62.0071V45.8057L518.923 37.6998L504.901 45.8057V62.0071L518.923 70.1026L532.944 62.0071Z" fill="#231F20"/>
<path d="M564.083 44.912V62.9216L548.504 71.9212L532.924 62.9216V44.912L548.504 35.9227L564.083 44.912ZM562.536 62.0071V45.8057L548.514 37.6998L534.492 45.8057V62.0071L548.514 70.1026L562.536 62.0071Z" fill="#231F20"/>
<path d="M593.674 44.912V62.9216L578.094 71.9212L562.515 62.9216V44.912L578.094 35.9227L593.674 44.912ZM592.126 62.0071V45.8057L578.105 37.6998L564.083 45.8057V62.0071L578.105 70.1026L592.126 62.0071Z" fill="#231F20"/>
<path d="M623.255 44.912V62.9216L607.675 71.9212L592.096 62.9216V44.912L607.675 35.9227L623.255 44.912ZM621.718 62.0071V45.8057L607.696 37.6998L593.674 45.8057V62.0071L607.696 70.1026L621.718 62.0071Z" fill="#231F20"/>
<path d="M652.846 44.912V62.9216L637.266 71.9212L621.687 62.9216V44.912L637.266 35.9227L652.846 44.912ZM651.309 62.0071V45.8057L637.287 37.6998L623.255 45.8057V62.0071L637.287 70.1026L651.309 62.0071Z" fill="#231F20"/>
<path d="M682.437 44.912V62.9216L666.857 71.9212L651.277 62.9216V44.912L666.857 35.9227L682.437 44.912ZM680.9 62.0071V45.8057L666.878 37.6998L652.846 45.8057V62.0071L666.878 70.1026L680.9 62.0071Z" fill="#231F20"/>
<path d="M712.028 44.912V62.9216L696.448 71.9212L680.868 62.9216V44.912L696.448 35.9227L712.028 44.912ZM710.49 62.0071V45.8057L696.458 37.6998L682.437 45.8057V62.0071L696.458 70.1026L710.49 62.0071Z" fill="#231F20"/>
<path d="M741.618 44.912V62.9216L726.039 71.9212L710.459 62.9216V44.912L726.039 35.9227L741.618 44.912ZM740.081 62.0071V45.8057L726.049 37.6998L712.027 45.8057V62.0071L726.049 70.1026L740.081 62.0071Z" fill="#231F20"/>
<path d="M771.21 44.912V62.9216L755.63 71.9212L740.051 62.9216V44.912L755.63 35.9227L771.21 44.912ZM769.663 62.0071V45.8057L755.641 37.6998L741.619 45.8057V62.0071L755.641 70.1026L769.663 62.0071Z" fill="#231F20"/>
<path d="M430.929 70.5494V88.5382L415.349 97.5275L399.77 88.5382V70.5494L415.349 61.5602L430.929 70.5494ZM429.381 87.6445V71.4431L415.36 63.3373L401.338 71.4431V87.6445L415.36 95.74L429.381 87.6445Z" fill="#231F20"/>
<path d="M460.52 70.5494V88.5382L444.94 97.5275L429.36 88.5382V70.5494L444.94 61.5602L460.52 70.5494ZM458.972 87.6445V71.4431L444.95 63.3373L430.929 71.4431V87.6445L444.95 95.74L458.972 87.6445Z" fill="#231F20"/>
<path d="M490.111 70.5494V88.5382L474.531 97.5275L458.951 88.5382V70.5494L474.531 61.5602L490.111 70.5494ZM488.563 87.6445V71.4431L474.541 63.3373L460.52 71.4431V87.6445L474.541 95.74L488.563 87.6445Z" fill="#231F20"/>
<path d="M519.692 70.5494V88.5382L504.112 97.5275L488.532 88.5382V70.5494L504.112 61.5602L519.692 70.5494ZM518.154 87.6445V71.4431L504.133 63.3373L490.111 71.4431V87.6445L504.133 95.74L518.154 87.6445Z" fill="#231F20"/>
<path d="M549.282 70.5494V88.5382L533.703 97.5275L518.123 88.5382V70.5494L533.703 61.5602L549.282 70.5494ZM547.745 87.6445V71.4431L533.723 63.3373L519.691 71.4431V87.6445L533.723 95.74L547.745 87.6445Z" fill="#231F20"/>
<path d="M578.873 70.5494V88.5382L563.294 97.5275L547.714 88.5382V70.5494L563.294 61.5602L578.873 70.5494ZM577.336 87.6445V71.4431L563.314 63.3373L549.282 71.4431V87.6445L563.314 95.74L577.336 87.6445Z" fill="#231F20"/>
<path d="M608.464 70.5494V88.5382L592.884 97.5275L577.305 88.5382V70.5494L592.884 61.5602L608.464 70.5494ZM606.927 87.6445V71.4431L592.895 63.3373L578.873 71.4431V87.6445L592.895 95.74L606.927 87.6445Z" fill="#231F20"/>
<path d="M638.056 70.5494V88.5382L622.476 97.5275L606.896 88.5382V70.5494L622.476 61.5602L638.056 70.5494ZM636.519 87.6445V71.4431L622.487 63.3373L608.465 71.4431V87.6445L622.487 95.74L636.519 87.6445Z" fill="#231F20"/>
<path d="M667.647 70.5494V88.5382L652.067 97.5275L636.487 88.5382V70.5494L652.067 61.5602L667.647 70.5494ZM666.099 87.6445V71.4431L652.077 63.3373L638.056 71.4431V87.6445L652.077 95.74L666.099 87.6445Z" fill="#231F20"/>
<path d="M697.237 70.5494V88.5382L681.658 97.5275L666.078 88.5382V70.5494L681.658 61.5602L697.237 70.5494ZM695.69 87.6445V71.4431L681.668 63.3373L667.646 71.4431V87.6445L681.668 95.74L695.69 87.6445Z" fill="#231F20"/>
<path d="M726.828 70.5494V88.5382L711.249 97.5275L695.669 88.5382V70.5494L711.249 61.5602L726.828 70.5494ZM725.281 87.6445V71.4431L711.259 63.3373L697.237 71.4431V87.6445L711.259 95.74L725.281 87.6445Z" fill="#231F20"/>
<path d="M756.409 70.5494V88.5382L740.83 97.5275L725.25 88.5382V70.5494L740.83 61.5602L756.409 70.5494ZM754.872 87.6445V71.4431L740.85 63.3373L726.829 71.4431V87.6445L740.85 95.74L754.872 87.6445Z" fill="#231F20"/>
<path d="M786 70.5494V88.5382L770.42 97.5275L754.841 88.5382V70.5494L770.42 61.5602L786 70.5494ZM784.463 87.6445V71.4431L770.441 63.3373L756.409 71.4431V87.6445L770.441 95.74L784.463 87.6445Z" fill="#231F20"/>
<path d="M416.159 96.1765V114.165L400.58 123.196L385 114.176V96.1765L400.58 87.1873L416.159 96.1765ZM414.622 113.272V97.0806L400.58 88.9747L386.548 97.0806V113.282L400.58 121.388L414.622 113.272Z" fill="#231F20"/>
<path d="M445.719 96.1765V114.165L430.139 123.155L414.56 114.165V96.1765L430.139 87.1873L445.719 96.1765ZM444.202 113.282V97.0806L430.181 88.9747L416.159 97.0806V113.282L430.191 121.388L444.202 113.282Z" fill="#231F20"/>
<path d="M475.362 96.1765V114.165L459.783 123.196L444.203 114.207V96.1765L459.783 87.1873L475.362 96.1765ZM473.825 113.272V97.0806L459.783 88.9747L445.761 97.0806V113.282L459.783 121.388L473.825 113.272Z" fill="#231F20"/>
<path d="M504.902 96.1765V114.165L489.322 123.155L473.742 114.165V96.1765L489.322 87.1873L504.902 96.1765ZM503.406 113.282V97.0806L489.374 88.9747L475.362 97.0806V113.282L489.384 121.388L503.406 113.282Z" fill="#231F20"/>
<path d="M534.492 96.1765V114.165L518.913 123.155L503.333 114.165V96.1765L518.913 87.1873L534.492 96.1765ZM532.945 113.272V97.0806L518.923 88.9747L504.901 97.0806V113.282L518.923 121.388L532.945 113.272Z" fill="#231F20"/>
<path d="M564.083 96.1765V114.165L548.504 123.155L532.924 114.165V96.1765L548.504 87.1873L564.083 96.1765ZM562.536 113.272V97.0806L548.514 88.9747L534.492 97.0806V113.282L548.514 121.388L562.536 113.272Z" fill="#231F20"/>
<path d="M593.674 96.1765V114.165L578.094 123.155L562.515 114.165V96.1765L578.094 87.1873L593.674 96.1765ZM592.126 113.272V97.0806L578.105 88.9747L564.083 97.0806V113.282L578.105 121.388L592.126 113.272Z" fill="#231F20"/>
<path d="M623.255 96.1765V114.165L607.675 123.155L592.096 114.165V96.1765L607.675 87.1873L623.255 96.1765ZM621.718 113.272V97.0806L607.696 88.9747L593.674 97.0806V113.282L607.696 121.388L621.718 113.272Z" fill="#231F20"/>
<path d="M652.846 96.1765V114.165L637.266 123.155L621.687 114.165V96.1765L637.266 87.1873L652.846 96.1765ZM651.309 113.272V97.0806L637.287 88.9747L623.255 97.0806V113.282L637.287 121.388L651.309 113.272Z" fill="#231F20"/>
<path d="M682.437 96.1765V114.165L666.857 123.155L651.277 114.165V96.1765L666.857 87.1873L682.437 96.1765ZM680.9 113.272V97.0806L666.878 88.9747L652.846 97.0806V113.282L666.878 121.388L680.9 113.272Z" fill="#231F20"/>
<path d="M712.028 96.1765V114.165L696.448 123.155L680.868 114.165V96.1765L696.448 87.1873L712.028 96.1765ZM710.49 113.272V97.0806L696.458 88.9747L682.437 97.0806V113.282L696.458 121.388L710.49 113.272Z" fill="#231F20"/>
<path d="M741.618 96.1765V114.165L726.039 123.155L710.459 114.165V96.1765L726.039 87.1873L741.618 96.1765ZM740.081 113.272V97.0806L726.049 88.9747L712.027 97.0806V113.282L726.049 121.388L740.081 113.272Z" fill="#231F20"/>
<path d="M771.21 96.1765V114.165L755.63 123.155L740.051 114.165V96.1765L755.63 87.1873L771.21 96.1765ZM769.663 113.272V97.0806L755.641 88.9747L741.619 97.0806V113.282L755.641 121.388L769.663 113.272Z" fill="#231F20"/>
<path d="M430.929 121.824V139.824L415.349 148.813L399.77 139.824V121.824L415.349 112.835L430.929 121.824ZM429.381 138.919V122.718L415.36 114.623L401.338 122.718V138.919L415.36 147.025L429.381 138.919Z" fill="#231F20"/>
<path d="M460.52 121.824V139.824L444.94 148.813L429.36 139.824V121.824L444.94 112.835L460.52 121.824ZM458.972 138.919V122.718L444.95 114.623L430.929 122.718V138.919L444.95 147.025L458.972 138.919Z" fill="#231F20"/>
<path d="M490.111 121.824V139.824L474.531 148.813L458.951 139.824V121.824L474.531 112.835L490.111 121.824ZM488.563 138.919V122.718L474.541 114.623L460.52 122.718V138.919L474.541 147.025L488.563 138.919Z" fill="#231F20"/>
<path d="M519.692 121.824V139.824L504.112 148.813L488.532 139.824V121.824L504.112 112.835L519.692 121.824ZM518.154 138.919V122.718L504.133 114.623L490.111 122.718V138.919L504.133 147.025L518.154 138.919Z" fill="#231F20"/>
<path d="M549.282 121.824V139.824L533.703 148.813L518.123 139.824V121.824L533.703 112.835L549.282 121.824ZM547.745 138.919V122.718L533.723 114.623L519.691 122.718V138.919L533.723 147.025L547.745 138.919Z" fill="#231F20"/>
<path d="M578.873 121.824V139.824L563.294 148.813L547.714 139.824V121.824L563.294 112.835L578.873 121.824ZM577.336 138.919V122.718L563.314 114.623L549.282 122.718V138.919L563.314 147.025L577.336 138.919Z" fill="#231F20"/>
<path d="M608.464 121.824V139.824L592.884 148.813L577.305 139.824V121.824L592.884 112.835L608.464 121.824ZM606.927 138.919V122.718L592.895 114.623L578.873 122.718V138.919L592.895 147.025L606.927 138.919Z" fill="#231F20"/>
<path d="M638.056 121.824V139.824L622.476 148.813L606.896 139.824V121.824L622.476 112.835L638.056 121.824ZM636.519 138.919V122.718L622.487 114.623L608.465 122.718V138.919L622.487 147.025L636.519 138.919Z" fill="#231F20"/>
<path d="M667.647 121.824V139.824L652.067 148.813L636.487 139.824V121.824L652.067 112.835L667.647 121.824ZM666.099 138.919V122.718L652.077 114.623L638.056 122.718V138.919L652.077 147.025L666.099 138.919Z" fill="#231F20"/>
<path d="M697.237 121.824V139.824L681.658 148.813L666.078 139.824V121.824L681.658 112.835L697.237 121.824ZM695.69 138.919V122.718L681.668 114.623L667.646 122.718V138.919L681.668 147.025L695.69 138.919Z" fill="#231F20"/>
<path d="M726.828 121.824V139.824L711.249 148.813L695.669 139.824V121.824L711.249 112.835L726.828 121.824ZM725.281 138.919V122.718L711.259 114.623L697.237 122.718V138.919L711.259 147.025L725.281 138.919Z" fill="#231F20"/>
<path d="M756.409 121.824V139.824L740.83 148.813L725.25 139.824V121.824L740.83 112.835L756.409 121.824ZM754.872 138.919V122.718L740.85 114.623L726.829 122.718V138.919L740.85 147.025L754.872 138.919Z" fill="#231F20"/>
<path d="M786 121.824V139.824L770.42 148.813L754.841 139.824V121.824L770.42 112.835L786 121.824ZM784.463 138.919V122.718L770.441 114.623L756.409 122.718V138.919L770.441 147.025L784.463 138.919Z" fill="#231F20"/>
<path d="M416.159 147.472V165.451L400.58 174.44L385 165.451V147.472L400.58 138.473L416.159 147.472ZM414.591 164.557V148.356L400.58 140.26L386.537 148.356V164.557L400.58 172.663L414.591 164.557Z" fill="#231F20"/>
<path d="M445.719 147.472V165.451L430.139 174.44L414.56 165.451V147.472L430.139 138.473L445.719 147.472ZM444.202 164.557V148.356L430.181 140.26L416.159 148.356V164.557L430.191 172.663L444.202 164.557Z" fill="#231F20"/>
<path d="M475.362 147.472V165.451L459.783 174.44L444.203 165.451V147.472L459.783 138.473L475.362 147.472ZM473.773 164.557V148.356L459.783 140.26L445.761 148.356V164.557L459.783 172.663L473.773 164.557Z" fill="#231F20"/>
<path d="M504.902 147.472V165.451L489.322 174.44L473.742 165.451V147.472L489.322 138.473L504.902 147.472ZM503.406 164.557V148.356L489.374 140.26L475.362 148.356V164.557L489.384 172.663L503.406 164.557Z" fill="#231F20"/>
<path d="M534.492 147.472V165.451L518.913 174.44L503.333 165.451V147.472L518.913 138.473L534.492 147.472ZM532.945 164.557V148.356L518.923 140.26L504.901 148.356V164.557L518.923 172.663L532.945 164.557Z" fill="#231F20"/>
<path d="M564.083 147.472V165.451L548.504 174.44L532.924 165.451V147.472L548.504 138.473L564.083 147.472ZM562.536 164.557V148.356L548.514 140.26L534.492 148.356V164.557L548.514 172.663L562.536 164.557Z" fill="#231F20"/>
<path d="M593.674 147.472V165.451L578.094 174.44L562.515 165.451V147.472L578.094 138.473L593.674 147.472ZM592.126 164.557V148.356L578.105 140.26L564.083 148.356V164.557L578.105 172.663L592.126 164.557Z" fill="#231F20"/>
<path d="M623.255 147.472V165.451L607.675 174.44L592.096 165.451V147.472L607.675 138.473L623.255 147.472ZM621.718 164.557V148.356L607.696 140.26L593.674 148.356V164.557L607.696 172.663L621.718 164.557Z" fill="#231F20"/>
<path d="M652.846 147.472V165.451L637.266 174.44L621.687 165.451V147.472L637.266 138.473L652.846 147.472ZM651.309 164.557V148.356L637.287 140.26L623.255 148.356V164.557L637.287 172.663L651.309 164.557Z" fill="#231F20"/>
<path d="M682.437 147.472V165.451L666.857 174.44L651.277 165.451V147.472L666.857 138.473L682.437 147.472ZM680.9 164.557V148.356L666.878 140.26L652.846 148.356V164.557L666.878 172.663L680.9 164.557Z" fill="#231F20"/>
<path d="M712.028 147.472V165.451L696.448 174.44L680.868 165.451V147.472L696.448 138.473L712.028 147.472ZM710.49 164.557V148.356L696.458 140.26L682.437 148.356V164.557L696.458 172.663L710.49 164.557Z" fill="#231F20"/>
<path d="M741.618 147.472V165.451L726.039 174.44L710.459 165.451V147.472L726.039 138.473L741.618 147.472ZM740.081 164.557V148.356L726.049 140.26L712.027 148.356V164.557L726.049 172.663L740.081 164.557Z" fill="#231F20"/>
<path d="M771.21 147.472V165.451L755.63 174.44L740.051 165.451V147.472L755.63 138.473L771.21 147.472ZM769.663 164.557V148.356L755.641 140.26L741.619 148.356V164.557L755.641 172.663L769.663 164.557Z" fill="#231F20"/>
<path d="M430.929 173.078V191.057L415.349 200.056L399.77 191.057V173.078L415.349 164.089L430.929 173.078ZM429.381 190.174V174.003L415.36 165.897L401.338 174.003V190.205L415.36 198.3L429.381 190.174Z" fill="#231F20"/>
<path d="M460.52 173.078V191.057L444.94 200.056L429.36 191.057V173.078L444.94 164.089L460.52 173.078ZM458.972 190.174V174.003L444.95 165.897L430.929 174.003V190.205L444.95 198.3L458.972 190.174Z" fill="#231F20"/>
<path d="M490.111 173.078V191.057L474.531 200.056L458.951 191.057V173.078L474.531 164.089L490.111 173.078ZM488.563 190.174V174.003L474.541 165.897L460.52 174.003V190.205L474.541 198.3L488.563 190.174Z" fill="#231F20"/>
<path d="M519.692 173.078V191.057L504.112 200.056L488.532 191.057V173.078L504.112 164.089L519.692 173.078ZM518.154 190.174V174.003L504.133 165.897L490.111 174.003V190.205L504.133 198.3L518.154 190.174Z" fill="#231F20"/>
<path d="M549.282 173.078V191.057L533.703 200.056L518.123 191.057V173.078L533.703 164.089L549.282 173.078ZM547.745 190.174V174.003L533.723 165.897L519.691 174.003V190.205L533.723 198.3L547.745 190.174Z" fill="#231F20"/>
<path d="M578.873 173.078V191.057L563.294 200.056L547.714 191.057V173.078L563.294 164.089L578.873 173.078ZM577.336 190.174V174.003L563.314 165.897L549.282 174.003V190.205L563.314 198.3L577.336 190.174Z" fill="#231F20"/>
<path d="M608.464 173.078V191.057L592.884 200.056L577.305 191.057V173.078L592.884 164.089L608.464 173.078ZM606.927 190.174V174.003L592.895 165.897L578.873 174.003V190.205L592.895 198.3L606.927 190.174Z" fill="#231F20"/>
<path d="M638.056 173.078V191.057L622.476 200.056L606.896 191.057V173.078L622.476 164.089L638.056 173.078ZM636.519 190.174V174.003L622.487 165.897L608.465 174.003V190.205L622.487 198.3L636.519 190.174Z" fill="#231F20"/>
<path d="M667.647 173.078V191.057L652.067 200.056L636.487 191.057V173.078L652.067 164.089L667.647 173.078ZM666.099 190.174V174.003L652.077 165.897L638.056 174.003V190.205L652.077 198.3L666.099 190.174Z" fill="#231F20"/>
<path d="M697.237 173.078V191.057L681.658 200.056L666.078 191.057V173.078L681.658 164.089L697.237 173.078ZM695.69 190.174V174.003L681.668 165.897L667.646 174.003V190.205L681.668 198.3L695.69 190.174Z" fill="#231F20"/>
<path d="M726.828 173.078V191.057L711.249 200.056L695.669 191.057V173.078L711.249 164.089L726.828 173.078ZM725.281 190.174V174.003L711.259 165.897L697.237 174.003V190.205L711.259 198.3L725.281 190.174Z" fill="#231F20"/>
<path d="M756.409 173.078V191.057L740.83 200.056L725.25 191.057V173.078L740.83 164.089L756.409 173.078ZM754.872 190.174V174.003L740.85 165.897L726.829 174.003V190.205L740.85 198.3L754.872 190.174Z" fill="#231F20"/>
<path d="M786 173.078V191.057L770.42 200.056L754.841 191.057V173.078L770.42 164.089L786 173.078ZM784.463 190.174V174.003L770.441 165.897L756.409 174.003V190.205L770.441 198.3L784.463 190.174Z" fill="#231F20"/>
</g>
</g>
<g clip-path="url(#clip3_645_329)">
<ellipse cx="658.153" cy="152.673" rx="34.1527" ry="33.5176" fill="white"/>
<path fill-rule="evenodd" clip-rule="evenodd" d="M689.643 137.533C688.253 134.528 686.285 131.754 683.97 129.211C682.117 127.246 680.149 125.513 677.95 124.01C673.666 121.121 668.919 119.271 664.057 118.462C663.594 118.347 663.131 118.347 662.784 118.231C661.279 118.116 659.773 118 658.153 118C654.795 118 651.438 118.578 648.196 119.503C646.228 120.08 644.376 120.889 642.639 121.814C641.018 122.623 639.398 123.663 637.893 124.819C636.966 125.513 636.04 126.322 635.114 127.131C632.567 129.442 630.483 132.101 628.862 134.874C628.284 135.683 627.82 136.492 627.473 137.417C625.273 141.809 624.116 146.548 624 151.402V153.714C624.116 158.452 625.273 163.191 627.473 167.583C627.936 168.392 628.399 169.317 628.862 170.126C630.02 172.09 631.525 174.055 633.146 175.789C634.651 177.407 636.272 178.91 638.008 180.181C639.513 181.337 641.134 182.261 642.755 183.186C644.607 184.111 646.46 184.92 648.312 185.497C651.554 186.538 654.911 187 658.268 187C659.773 187 661.279 186.884 662.784 186.769C663.247 186.769 663.71 186.653 664.057 186.538C668.919 185.729 673.666 183.879 677.95 180.99C679.339 180.065 680.612 179.025 681.886 177.869C685.243 174.864 687.79 171.281 689.643 167.467C691.727 163.075 692.884 158.337 693 153.598V151.402C692.884 146.548 691.727 141.925 689.643 137.533ZM680.844 137.302C680.265 138.688 679.455 140.075 678.413 141.462C678.297 141.693 678.065 141.925 677.95 142.156C676.908 143.543 675.866 144.814 674.708 146.085C671.582 144.814 667.414 144.121 664.057 143.774C663.594 143.774 663.131 143.658 662.784 143.658C662.552 143.658 662.32 143.658 662.089 143.658C661.047 141.693 660.005 139.729 658.732 137.879C658.5 137.533 658.384 137.302 658.153 137.07C657.111 135.452 656.069 133.95 654.911 132.447C655.721 130.482 656.879 128.864 658.153 127.246C658.963 126.322 659.773 125.397 660.7 124.588C661.394 124.472 662.089 124.472 662.668 124.472C663.131 124.472 663.594 124.472 663.941 124.472C665.099 124.472 666.257 124.588 667.414 124.819C669.846 125.166 672.277 125.975 674.592 127.131C675.866 128.402 676.908 129.673 677.834 131.06C679.455 133.141 680.497 135.221 680.844 137.302ZM661.51 143.889C660.352 145.854 659.31 147.935 658.268 150.015C657.342 151.864 656.3 153.829 655.374 155.678C653.174 156.141 650.975 156.487 648.659 156.719H648.312C646.46 156.95 644.607 157.065 642.755 157.065C642.408 157.065 641.945 157.065 641.597 157.065C640.208 155.794 638.935 154.291 637.893 152.673C636.619 150.593 635.461 148.513 634.651 146.201C635.346 143.889 636.388 141.693 637.545 139.613C637.661 139.382 637.777 139.266 637.893 139.035C638.935 137.302 640.092 135.683 641.366 134.065C641.829 133.95 642.292 133.719 642.639 133.603C644.607 133.025 646.46 132.563 648.196 132.447C650.396 132.216 652.48 132.332 654.332 132.794C655.721 134.528 656.879 136.261 658.153 138.111L658.268 138.226C659.426 140.075 660.584 141.925 661.51 143.889ZM652.711 120.312C652.827 120.196 652.943 120.196 652.943 120.08C654.68 119.734 656.416 119.618 658.153 119.618C658.732 119.618 659.31 119.618 659.889 119.618C660.815 119.618 661.742 119.734 662.668 119.849C663.131 119.849 663.594 119.965 663.941 120.08C668.456 120.889 672.856 122.623 676.792 125.166C675.866 125.05 675.055 125.628 674.245 126.322C672.045 125.281 669.846 124.588 667.53 124.241C666.372 124.01 665.099 123.894 663.941 123.894C663.478 123.894 663.015 123.894 662.668 123.894C661.973 123.894 661.279 124.01 660.584 124.01C659.773 123.432 658.963 122.854 658.153 122.508C656.185 121.467 654.101 120.774 652.133 120.889C652.364 120.774 652.48 120.543 652.711 120.312ZM637.893 126.784C639.398 125.513 641.018 124.472 642.639 123.548C644.492 122.623 646.344 121.814 648.312 121.236C649.586 120.774 650.859 120.543 652.133 120.196C651.901 120.427 651.669 120.658 651.554 121.005C651.438 121.005 651.438 121.005 651.322 121.005C650.396 121.121 649.354 121.352 648.312 121.698C646.344 122.276 644.376 123.317 642.755 124.588C641.829 125.166 641.018 125.859 640.324 126.668C639.513 126.553 638.703 126.668 637.893 126.784ZM627.473 141.578C627.82 140.422 628.284 139.382 628.862 138.226C630.599 134.528 633.146 131.176 636.272 128.286C636.503 128.055 636.735 127.824 636.966 127.709C637.314 127.593 637.545 127.593 637.893 127.477H638.008C638.703 127.362 639.398 127.246 640.092 127.246C639.861 129.442 640.324 131.638 641.25 133.719C640.092 135.106 639.05 136.608 638.008 138.226C637.777 138.688 637.43 139.151 637.198 139.613C635.924 141.809 634.998 144.121 634.188 146.548C632.22 147.126 630.483 148.05 628.862 149.206C628.399 149.553 627.936 150.015 627.473 150.362L627.357 150.477C626.779 149.668 626.315 148.859 625.968 147.819C625.968 147.704 625.968 147.704 625.852 147.588C626.2 145.623 626.779 143.543 627.473 141.578ZM627.473 163.422C626.084 159.492 625.505 155.216 625.621 151.171C625.621 150.477 625.737 149.784 625.737 148.975C626.084 149.784 626.431 150.477 627.01 151.055C626.2 153.02 626.431 157.065 627.473 160.417C627.82 161.688 628.284 162.844 628.862 163.769C628.862 163.884 628.978 163.884 628.978 164C628.978 164.116 628.862 164.116 628.862 164.231C628.631 164.693 628.399 165.04 628.284 165.503C627.936 164.809 627.705 164.116 627.473 163.422ZM642.639 181.337C641.018 180.412 639.398 179.372 637.893 178.101C636.619 177.06 635.346 175.905 634.188 174.633C631.988 172.206 630.136 169.432 628.747 166.658L628.631 166.427C628.631 166.08 628.631 165.849 628.747 165.503C628.862 165.156 628.978 164.809 629.21 164.462C631.525 166.774 634.419 167.93 637.43 168.276C637.545 168.508 637.661 168.854 637.777 169.085C638.471 170.472 639.629 171.975 641.018 173.477C641.482 174.055 642.06 174.518 642.639 174.98C644.029 176.251 645.649 177.523 647.27 178.447C647.039 179.834 646.923 181.221 647.27 182.492C646.807 182.608 646.46 182.724 645.997 182.839C644.955 182.492 643.797 181.915 642.639 181.337ZM648.312 183.764C647.849 183.648 647.502 183.533 647.039 183.302C647.27 183.186 647.502 183.186 647.733 183.07C647.965 183.186 648.081 183.302 648.312 183.417C648.659 183.648 649.122 183.879 649.586 184.111C649.122 183.995 648.659 183.879 648.312 183.764ZM658.153 177.985C654.68 179.025 650.859 179.141 648.428 178.563L648.312 178.447C646.344 177.407 644.376 175.905 642.755 174.286C642.292 173.94 641.945 173.477 641.597 173.131C639.977 171.397 638.703 169.548 638.124 168.045C638.703 164.578 639.629 161.111 641.713 157.874C642.06 157.874 642.408 157.874 642.755 157.874C644.607 157.759 646.46 157.643 648.312 157.528H648.659C650.859 157.296 653.059 156.95 655.258 156.487C656.185 157.643 657.227 158.915 658.268 159.955C659.658 161.573 661.279 163.075 662.784 164.578C663.247 165.04 663.71 165.387 664.057 165.849L664.404 166.08C664.289 166.658 664.173 167.352 664.057 167.93C663.826 169.317 663.478 170.588 663.015 171.975C662.899 172.206 662.784 172.553 662.784 172.784C662.205 174.286 661.626 175.789 660.7 177.291C659.889 177.407 659.079 177.754 658.153 177.985ZM680.844 176.714C679.918 177.523 678.992 178.332 678.065 179.025C673.898 182.146 669.035 184.111 664.173 184.92H663.826C663.941 184.92 664.057 184.804 664.173 184.804C665.794 184.226 667.067 183.302 668.109 182.146C670.54 181.683 672.971 180.99 675.171 179.834C676.213 179.256 677.139 178.678 678.065 177.985C679.223 177.176 680.381 176.251 681.423 175.211C681.77 175.211 682.117 175.211 682.581 174.98C682.002 175.558 681.423 176.136 680.844 176.714ZM681.539 174.286C680.381 175.442 679.223 176.482 678.065 177.407C677.023 178.216 675.982 178.794 674.824 179.372C672.624 180.528 670.424 181.221 667.993 181.683C666.604 181.221 665.331 180.643 664.173 179.95C663.71 179.603 663.247 179.372 662.899 179.025C662.32 178.563 661.742 178.101 661.279 177.523C661.857 176.367 662.436 175.211 662.899 174.171C663.247 173.477 663.478 172.784 663.71 172.09C663.941 171.513 664.057 170.935 664.289 170.357C664.636 168.97 664.867 167.698 665.099 166.427C669.614 164.925 673.435 162.96 677.139 160.07L678.181 160.764C680.381 162.266 682.581 163.653 684.78 165.04C684.896 166.889 683.854 170.704 681.539 174.286ZM690.221 158.221C690.106 158.683 689.874 159.146 689.643 159.492C688.485 161.688 686.748 163.538 684.896 164.347C682.581 162.96 680.265 161.342 677.95 159.839L677.023 159.261C677.371 154.985 676.676 150.477 675.055 146.432C676.097 145.276 677.023 144.121 677.95 142.965C678.297 142.503 678.529 142.156 678.876 141.693C679.802 140.307 680.728 138.92 681.307 137.533C683.044 137.533 685.938 139.035 688.022 141.116C688.716 142.387 689.295 143.774 689.758 145.045C690.106 146.201 690.337 147.357 690.569 148.513C690.916 151.633 690.8 154.754 690.221 158.221ZM691.379 153.829C691.379 154.869 691.263 155.91 691.148 156.95C691.148 156.834 691.032 156.719 691.032 156.719C691.379 153.829 691.379 151.171 691.032 148.744C690.8 147.01 690.337 145.392 689.643 143.774C689.295 143.08 689.064 142.271 688.601 141.578C688.716 140.769 688.601 139.96 688.485 139.035C688.948 139.96 689.295 140.884 689.527 141.809C691.032 145.623 691.611 149.784 691.379 153.829Z" fill="black"/>
</g>
<defs>
<clipPath id="clip0_645_329">
<rect width="771" height="179" fill="white"/>
</clipPath>
<clipPath id="clip1_645_329">
<rect width="401" height="318" fill="white" transform="translate(-15 -67)"/>
</clipPath>
<clipPath id="clip2_645_329">
<rect width="401" height="318" fill="white" transform="translate(385 -41)"/>
</clipPath>
<clipPath id="clip3_645_329">
<rect width="69" height="69" fill="white" transform="translate(624 118)"/>
</clipPath>
</defs>
</svg>
