<svg width="256" height="256" viewBox="0 0 256 256" fill="none" xmlns="http://www.w3.org/2000/svg">
<mask id="path-1-inside-1_201_330" fill="white">
<path fill-rule="evenodd" clip-rule="evenodd" d="M198.987 73.3031L172.004 86.4195L156.94 83.3008C137.733 79.3229 105.893 79.3453 88.9433 83.3517C81.7028 85.0637 69.368 89.5546 61.5325 93.333C47.015 100.336 28 113.585 28 116.695C28 117.644 30.5116 119.01 33.5837 119.731C47.9185 123.104 79.0491 134.252 91.1139 140.333C122.6 156.204 125.522 176.339 98.6407 192.2C87.6053 198.714 90.2063 198.611 108.521 191.811C140.228 180.04 149.531 160.163 133.688 138.043L127.239 129.038H161.801L158.628 136.672C156.882 140.872 153.208 148.757 150.465 154.194C147.722 159.632 146.348 163.754 147.412 163.355C148.473 162.956 156.991 156.7 166.337 149.455C183.072 136.481 183.504 135.917 195.072 112.034C201.533 98.6973 206.507 87.4741 206.13 87.0954C205.752 86.7147 198.522 89.6849 190.065 93.6933C176.701 100.027 174.191 102.083 170.887 109.411L167.084 117.842L149.838 118.44C139.294 118.807 133.375 118.314 134.61 117.172C135.72 116.146 154.445 106.808 176.221 96.4233C197.998 86.0368 217.185 76.3629 218.86 74.9256C222.84 71.5076 229.719 59.7693 227.605 60.0035C226.704 60.1032 213.825 66.0884 198.987 73.3031ZM121.538 97.6692C127.605 99.4505 133.365 101.669 134.342 102.604C135.316 103.536 129.954 107.414 122.421 111.221L108.728 118.143L88.7078 110.737C77.6968 106.663 68.0746 102.716 67.3254 101.965C66.5761 101.215 69.0715 99.2469 72.8705 97.5939C82.1089 93.5732 107.727 93.6119 121.538 97.6692Z"/>
</mask>
<path fill-rule="evenodd" clip-rule="evenodd" d="M198.987 73.3031L172.004 86.4195L156.94 83.3008C137.733 79.3229 105.893 79.3453 88.9433 83.3517C81.7028 85.0637 69.368 89.5546 61.5325 93.333C47.015 100.336 28 113.585 28 116.695C28 117.644 30.5116 119.01 33.5837 119.731C47.9185 123.104 79.0491 134.252 91.1139 140.333C122.6 156.204 125.522 176.339 98.6407 192.2C87.6053 198.714 90.2063 198.611 108.521 191.811C140.228 180.04 149.531 160.163 133.688 138.043L127.239 129.038H161.801L158.628 136.672C156.882 140.872 153.208 148.757 150.465 154.194C147.722 159.632 146.348 163.754 147.412 163.355C148.473 162.956 156.991 156.7 166.337 149.455C183.072 136.481 183.504 135.917 195.072 112.034C201.533 98.6973 206.507 87.4741 206.13 87.0954C205.752 86.7147 198.522 89.6849 190.065 93.6933C176.701 100.027 174.191 102.083 170.887 109.411L167.084 117.842L149.838 118.44C139.294 118.807 133.375 118.314 134.61 117.172C135.72 116.146 154.445 106.808 176.221 96.4233C197.998 86.0368 217.185 76.3629 218.86 74.9256C222.84 71.5076 229.719 59.7693 227.605 60.0035C226.704 60.1032 213.825 66.0884 198.987 73.3031ZM121.538 97.6692C127.605 99.4505 133.365 101.669 134.342 102.604C135.316 103.536 129.954 107.414 122.421 111.221L108.728 118.143L88.7078 110.737C77.6968 106.663 68.0746 102.716 67.3254 101.965C66.5761 101.215 69.0715 99.2469 72.8705 97.5939C82.1089 93.5732 107.727 93.6119 121.538 97.6692Z" fill="#3B3B3B" stroke="black" stroke-width="3" stroke-linejoin="round" mask="url(#path-1-inside-1_201_330)"/>
</svg>
