<svg width="32" height="32" viewBox="0 0 32 32" fill="none" xmlns="http://www.w3.org/2000/svg">
<rect width="32" height="32" rx="6" fill="white"/>
<mask id="path-2-inside-1_201_332" fill="white">
<path fill-rule="evenodd" clip-rule="evenodd" d="M24.8733 9.16289L21.5005 10.8024L19.6175 10.4126C17.2166 9.91536 13.2367 9.91816 11.1179 10.419C10.2129 10.633 8.671 11.1943 7.69157 11.6666C5.87687 12.542 3.5 14.1981 3.5 14.5869C3.5 14.7055 3.81396 14.8763 4.19796 14.9663C5.98981 15.388 9.88113 16.7815 11.3892 17.5416C15.325 19.5254 15.6902 22.0424 12.3301 24.025C10.9507 24.8393 11.2758 24.8263 13.5651 23.9764C17.5285 22.505 18.6914 20.0204 16.711 17.2553L15.9049 16.1298H20.2252L19.8285 17.0841C19.6102 17.609 19.1511 18.5946 18.8082 19.2743C18.4653 19.954 18.2935 20.4693 18.4264 20.4194C18.5592 20.3695 19.6239 19.5875 20.7922 18.6819C22.884 17.0601 22.9381 16.9896 24.384 14.0042C25.1916 12.3372 25.8134 10.9343 25.7662 10.8869C25.719 10.8393 24.8152 11.2106 23.7581 11.7117C22.0876 12.5033 21.7739 12.7603 21.3609 13.6764L20.8856 14.7302L18.7297 14.805C17.4117 14.8508 16.6719 14.7892 16.8262 14.6465C16.965 14.5182 19.3056 13.351 22.0277 12.0529C24.7497 10.7546 27.1482 9.54536 27.3575 9.3657C27.855 8.93845 28.7149 7.47117 28.4507 7.50043C28.338 7.5129 26.7281 8.26104 24.8733 9.16289ZM15.1922 12.2086C15.9506 12.4313 16.6706 12.7087 16.7927 12.8255C16.9145 12.942 16.2442 13.4268 15.3026 13.9027L13.591 14.7679L11.0885 13.8421C9.7121 13.3329 8.50932 12.8395 8.41567 12.7456C8.32202 12.6519 8.63394 12.4059 9.10881 12.1992C10.2636 11.6967 13.4659 11.7015 15.1922 12.2086Z"/>
</mask>
<path fill-rule="evenodd" clip-rule="evenodd" d="M24.8733 9.16289L21.5005 10.8024L19.6175 10.4126C17.2166 9.91536 13.2367 9.91816 11.1179 10.419C10.2129 10.633 8.671 11.1943 7.69157 11.6666C5.87687 12.542 3.5 14.1981 3.5 14.5869C3.5 14.7055 3.81396 14.8763 4.19796 14.9663C5.98981 15.388 9.88113 16.7815 11.3892 17.5416C15.325 19.5254 15.6902 22.0424 12.3301 24.025C10.9507 24.8393 11.2758 24.8263 13.5651 23.9764C17.5285 22.505 18.6914 20.0204 16.711 17.2553L15.9049 16.1298H20.2252L19.8285 17.0841C19.6102 17.609 19.1511 18.5946 18.8082 19.2743C18.4653 19.954 18.2935 20.4693 18.4264 20.4194C18.5592 20.3695 19.6239 19.5875 20.7922 18.6819C22.884 17.0601 22.9381 16.9896 24.384 14.0042C25.1916 12.3372 25.8134 10.9343 25.7662 10.8869C25.719 10.8393 24.8152 11.2106 23.7581 11.7117C22.0876 12.5033 21.7739 12.7603 21.3609 13.6764L20.8856 14.7302L18.7297 14.805C17.4117 14.8508 16.6719 14.7892 16.8262 14.6465C16.965 14.5182 19.3056 13.351 22.0277 12.0529C24.7497 10.7546 27.1482 9.54536 27.3575 9.3657C27.855 8.93845 28.7149 7.47117 28.4507 7.50043C28.338 7.5129 26.7281 8.26104 24.8733 9.16289ZM15.1922 12.2086C15.9506 12.4313 16.6706 12.7087 16.7927 12.8255C16.9145 12.942 16.2442 13.4268 15.3026 13.9027L13.591 14.7679L11.0885 13.8421C9.7121 13.3329 8.50932 12.8395 8.41567 12.7456C8.32202 12.6519 8.63394 12.4059 9.10881 12.1992C10.2636 11.6967 13.4659 11.7015 15.1922 12.2086Z" fill="#3B3B3B" stroke="black" stroke-width="0.66" stroke-linejoin="round" mask="url(#path-2-inside-1_201_332)"/>
</svg>
